<?xml version="1.0" encoding="utf-8"?>
<!-- Generator: Adobe Illustrator 22.0.1, SVG Export Plug-In . SVG Version: 6.00 Build 0)  -->
<svg version="1.0" id="Capa_1" xmlns="http://www.w3.org/2000/svg" xmlns:xlink="http://www.w3.org/1999/xlink" x="0px" y="0px"
	 viewBox="0 0 52.8 52.8" style="enable-background:new 0 0 52.8 52.8;" xml:space="preserve">
<style type="text/css">
	.st0{fill:#FFFFFF;}
	.st1{fill:#007DA4;}
</style>
<title>informe</title>
<circle class="st0" cx="26.4" cy="26.4" r="26.4"/>
<g>
	<path class="st1" d="M12.4,13.7c1.5-0.3,4.4-0.5,7.1-0.5c3.4,0,5.4,0.3,7.2,1.4c1.7,0.9,2.9,2.6,2.9,4.8c0,2.2-1.3,4.2-4,5.2v0.1
		c2.8,0.8,4.9,2.9,4.9,6c0,2.2-1,4-2.5,5.2c-1.8,1.4-4.8,2.2-9.6,2.2c-2.7,0-4.7-0.2-6-0.4V13.7z M17.9,23h1.8c2.9,0,4.5-1.2,4.5-3
		c0-1.8-1.4-2.8-3.9-2.8c-1.2,0-1.9,0.1-2.4,0.1V23z M17.9,33.9c0.5,0.1,1.2,0.1,2.1,0.1c2.5,0,4.7-0.9,4.7-3.5c0-2.5-2.2-3.4-5-3.4
		h-1.9V33.9z"/>
	<path class="st1" d="M39.9,13.3v24.4h-5.5V13.3H39.9z"/>
</g>
</svg>
